<svg width="24" height="22" viewBox="0 0 24 22" fill="none" xmlns="http://www.w3.org/2000/svg">
<path d="M6.5625 4.71875V2.6315C6.5625 1.80078 7.24219 1.12109 8.07291 1.12109H15.9271C16.7579 1.12109 17.4375 1.80078 17.4375 2.6315V4.71875" stroke="#0A65CC" stroke-width="2" stroke-miterlimit="22.9256" stroke-linecap="round" stroke-linejoin="round"/>
<path d="M22.3594 11.4688V19.4727C22.3594 20.246 21.7264 20.8789 20.9531 20.8789H3.04688C2.27358 20.8789 1.64062 20.2461 1.64062 19.4727V11.5156" stroke="#0A65CC" stroke-width="2" stroke-miterlimit="22.9256" stroke-linecap="round" stroke-linejoin="round"/>
<path d="M10.125 13.8359C5.16614 13.5524 0.703125 12.1344 0.703125 9.58189V6.25391C0.703125 5.47939 1.33481 4.84766 2.10938 4.84766H21.8906C22.6651 4.84766 23.2969 5.47944 23.2969 6.25391V9.58189C23.2969 12.1504 18.7775 13.5701 13.7812 13.8411" stroke="#0A65CC" stroke-width="2" stroke-miterlimit="22.9256" stroke-linecap="round" stroke-linejoin="round"/>
<path fill-rule="evenodd" clip-rule="evenodd" d="M10.2656 12.4414H13.7344V14.0586C13.7344 14.948 13.0066 15.6758 12.1172 15.6758H11.8828C10.9934 15.6758 10.2656 14.948 10.2656 14.0586V12.4414Z" stroke="#0A65CC" stroke-width="2" stroke-miterlimit="22.9256" stroke-linecap="round" stroke-linejoin="round"/>
</svg>
