<svg width="140" height="43" viewBox="0 0 140 43" fill="none" xmlns="http://www.w3.org/2000/svg">
<path d="M21.0727 0.579102C9.4747 0.579102 0.0722656 9.98128 0.0722656 21.5792C0.0722656 33.1777 9.4747 42.5791 21.0727 42.5791C32.6719 42.5791 42.0733 33.1777 42.0733 21.5792C42.0733 9.98204 32.6719 0.580105 21.0724 0.580105L21.0727 0.579102ZM30.7033 30.8673C30.3271 31.4842 29.5196 31.6798 28.9028 31.3011C23.9721 28.2894 17.765 27.6073 10.455 29.2774C9.75055 29.4379 9.04839 28.9966 8.8879 28.2919C8.72665 27.5872 9.16626 26.8851 9.87243 26.7246C17.872 24.8969 24.7339 25.6839 30.2695 29.0668C30.8864 29.4454 31.082 30.2504 30.7033 30.8673ZM33.2737 25.1492C32.7997 25.9196 31.7916 26.1628 31.0218 25.6889C25.3769 22.2192 16.7722 21.2144 10.0954 23.2411C9.22945 23.5026 8.31488 23.0146 8.05208 22.1502C7.79127 21.2843 8.27953 20.3715 9.14394 20.1082C16.7707 17.7941 26.2521 18.915 32.7345 22.8985C33.5044 23.3725 33.7477 24.3803 33.2737 25.1492ZM33.4944 19.1949C26.726 15.1748 15.5592 14.8051 9.09704 16.7664C8.05935 17.0811 6.96197 16.4953 6.6475 15.4576C6.33303 14.4194 6.91834 13.3228 7.95678 13.0073C15.3749 10.7554 27.7066 11.1905 35.4991 15.8165C36.4344 16.3704 36.7404 17.5759 36.1862 18.508C35.6345 19.4414 34.4247 19.7491 33.4944 19.1949ZM57.2074 19.9653C53.5812 19.1006 52.9367 18.4937 52.9367 17.2186C52.9367 16.0138 54.0702 15.2031 55.7579 15.2031C57.3929 15.2031 59.0129 15.8187 60.7132 17.0861C60.7633 17.1245 60.8285 17.1398 60.8912 17.1298C60.9564 17.1203 61.0116 17.0854 61.0492 17.033L62.8196 14.5373C62.8924 14.4345 62.8723 14.2928 62.7745 14.2143C60.7508 12.5911 58.4738 11.8019 55.8106 11.8019C51.896 11.8019 49.1601 14.1514 49.1601 17.513C49.1601 21.1178 51.5199 22.3942 55.5974 23.3795C59.0656 24.1787 59.6524 24.8483 59.6524 26.045C59.6524 27.3716 58.4687 28.1966 56.5629 28.1966C54.4464 28.1966 52.7185 27.4819 50.7876 25.8118C50.74 25.7691 50.6748 25.7516 50.6146 25.7541C50.5494 25.7591 50.4917 25.7892 50.4516 25.8368L48.4655 28.1991C48.3827 28.2994 48.3927 28.4449 48.488 28.5301C50.7349 30.5363 53.4984 31.5945 56.4826 31.5945C60.7006 31.5945 63.4265 29.29 63.4265 25.7215C63.434 22.7105 61.631 21.0428 57.2149 19.9685L57.2074 19.9653ZM72.9709 16.3893C71.1428 16.3893 69.6431 17.1095 68.4043 18.5853V16.9242C68.4043 16.793 68.299 16.6862 68.1686 16.6862H64.9211C64.7907 16.6862 64.6854 16.793 64.6854 16.9242V35.3812C64.6854 35.5116 64.7907 35.6194 64.9211 35.6194H68.1686C68.299 35.6194 68.4043 35.5116 68.4043 35.3812V29.5558C69.6431 30.9425 71.1428 31.6221 72.9709 31.6221C76.3688 31.6221 79.8094 29.0066 79.8094 24.0064C79.8144 19.0053 76.3739 16.389 72.9734 16.389L72.9709 16.3893ZM76.0328 24.0064C76.0328 26.5515 74.4655 28.3295 72.2186 28.3295C69.9992 28.3295 68.3241 26.4713 68.3241 24.0064C68.3241 21.5414 69.9992 19.6836 72.2186 19.6836C74.4279 19.6834 76.0328 21.5012 76.0328 24.0064ZM88.6241 16.3893C84.2481 16.3893 80.82 19.7586 80.82 24.0609C80.82 28.317 84.2255 31.6497 88.5714 31.6497C92.9624 31.6497 96.4005 28.2919 96.4005 24.0064C96.4005 19.7356 92.985 16.3893 88.6241 16.3893ZM88.6241 28.3546C86.2969 28.3546 84.5415 26.4838 84.5415 24.0052C84.5415 21.5153 86.2367 19.7085 88.5714 19.7085C90.9136 19.7085 92.679 21.5785 92.679 24.0596C92.679 26.549 90.9738 28.3546 88.6241 28.3546ZM105.744 16.6862H102.171V13.0334C102.171 12.9025 102.065 12.7957 101.935 12.7957H98.6875C98.5571 12.7957 98.4493 12.9025 98.4493 13.0334V16.6862H96.8895C96.7591 16.6862 96.6538 16.793 96.6538 16.9242V19.7145C96.6538 19.8454 96.7591 19.9525 96.8895 19.9525H98.4493V27.1734C98.4493 30.0899 99.9013 31.5695 102.768 31.5695C103.931 31.5695 104.897 31.3287 105.807 30.8121C105.882 30.772 105.927 30.6918 105.927 30.6065V27.9483C105.927 27.8681 105.885 27.7903 105.814 27.7477C105.744 27.7026 105.656 27.7001 105.584 27.7377C104.959 28.0511 104.355 28.1966 103.678 28.1966C102.637 28.1966 102.171 27.7226 102.171 26.6644V19.9537H105.744C105.875 19.9537 105.98 19.8469 105.98 19.7157V16.9257C105.985 16.7945 105.88 16.6877 105.747 16.6877L105.744 16.6862ZM118.193 16.7005V16.2518C118.193 14.932 118.699 14.3435 119.833 14.3435C120.51 14.3435 121.054 14.4779 121.663 14.681C121.738 14.7046 121.816 14.6928 121.876 14.6479C121.939 14.603 121.974 14.531 121.974 14.4548V11.7189C121.974 11.6143 121.909 11.5218 121.806 11.4909C121.164 11.2996 120.342 11.1032 119.108 11.1032C116.111 11.1032 114.524 12.7919 114.524 15.985V16.6721H112.964C112.834 16.6721 112.726 16.779 112.726 16.9099V19.7145C112.726 19.8454 112.834 19.9525 112.964 19.9525H114.524V31.088C114.524 31.2209 114.632 31.3262 114.762 31.3262H118.007C118.14 31.3262 118.245 31.2209 118.245 31.088V19.9532H121.277L125.921 31.088C125.395 32.2566 124.876 32.4898 124.168 32.4898C123.597 32.4898 122.992 32.3193 122.378 31.9807C122.32 31.9506 122.25 31.9456 122.19 31.9632C122.127 31.9858 122.075 32.0309 122.049 32.0911L120.949 34.506C120.896 34.6214 120.941 34.7543 121.051 34.8145C122.2 35.4364 123.236 35.7022 124.517 35.7022C126.914 35.7022 128.241 34.5837 129.407 31.5795L135.039 17.0255C135.07 16.9522 135.059 16.8695 135.014 16.8045C134.972 16.7401 134.899 16.7012 134.821 16.7012H131.441C131.338 16.7012 131.248 16.7657 131.215 16.8607L127.752 26.7496L123.96 16.8542C123.925 16.7622 123.837 16.7012 123.74 16.7012L118.193 16.7005ZM110.975 16.6862H107.728C107.597 16.6862 107.49 16.793 107.49 16.9242V31.088C107.49 31.2209 107.597 31.3262 107.728 31.3262H110.975C111.106 31.3262 111.214 31.2209 111.214 31.088V16.9252C111.214 16.794 111.108 16.6872 110.975 16.6872V16.6862ZM109.37 10.2366C108.084 10.2366 107.041 11.2778 107.041 12.564C107.041 13.8509 108.084 14.8934 109.37 14.8934C110.657 14.8934 111.698 13.8509 111.698 12.564C111.698 11.278 110.654 10.2366 109.37 10.2366ZM137.813 21.2404C136.529 21.2404 135.528 20.2085 135.528 18.9554C135.528 17.7023 136.542 16.6586 137.826 16.6586C139.109 16.6586 140.11 17.6903 140.11 18.9424C140.11 20.1955 139.097 21.2404 137.813 21.2404ZM137.826 16.8858C136.654 16.8858 135.769 17.8161 135.769 18.9554C135.769 20.0942 136.649 21.012 137.813 21.012C138.984 21.012 139.869 20.0824 139.869 18.9424C139.869 17.8036 138.989 16.8858 137.826 16.8858ZM138.332 19.1773L138.979 20.0821H138.432L137.851 19.2521H137.352V20.0821H136.895V17.6837H137.963C138.523 17.6837 138.889 17.9689 138.889 18.4488C138.891 18.8421 138.663 19.0823 138.335 19.1773H138.332ZM137.946 18.0953H137.352V18.8538H137.946C138.242 18.8538 138.42 18.7086 138.42 18.4742C138.42 18.2274 138.242 18.0953 137.946 18.0953Z" fill="white"/>
</svg>
